<?xml version="1.0" standalone="no"?>
<!DOCTYPE svg PUBLIC "-//W3C//DTD SVG 20010904//EN"
 "http://www.w3.org/TR/2001/REC-SVG-20010904/DTD/svg10.dtd">
<svg version="1.0" xmlns="http://www.w3.org/2000/svg"
 width="100.000000pt" height="100.000000pt" viewBox="0 0 100.000000 100.000000"
 preserveAspectRatio="xMidYMid meet">
<metadata>
Created by potrace 1.14, written by Peter Selinger 2001-2017
</metadata>
<g transform="translate(0.000000,100.000000) scale(0.100000,-0.100000)"
fill="#000000" stroke="none">
<path d="M378 866 c-101 -36 -163 -92 -207 -186 -22 -46 -26 -69 -26 -140 1
-73 5 -93 29 -142 33 -65 80 -114 151 -155 72 -42 72 -84 0 -97 -19 -4 -35
-12 -35 -18 0 -6 9 -8 23 -4 12 3 42 6 67 6 42 1 44 2 26 15 -25 19 -8 40 23
30 15 -4 21 -15 21 -35 0 -26 -4 -29 -37 -32 -20 -2 -39 -9 -41 -17 -3 -10 0
-12 12 -8 10 4 40 7 67 7 27 0 49 5 49 10 0 6 -7 10 -15 10 -24 0 -19 59 7 80
22 17 24 17 107 -27 87 -46 116 -49 151 -18 8 7 34 16 57 20 43 7 98 55 90 78
-1 5 -49 27 -105 49 -93 36 -100 41 -90 58 7 11 10 21 8 23 -3 2 -52 32 -110
68 -107 65 -170 114 -170 131 0 5 10 2 22 -6 25 -18 74 -21 110 -7 23 8 24 7
20 -20 -5 -37 15 -39 57 -4 57 49 64 130 16 195 -14 19 -25 39 -25 46 0 22
-44 67 -84 85 -48 22 -116 24 -168 5z m201 -107 c17 -6 31 -15 31 -19 0 -5
-17 -22 -38 -38 -29 -23 -41 -42 -51 -81 -8 -34 -18 -51 -28 -51 -9 0 -38 22
-65 50 l-49 50 28 36 c44 58 104 77 172 53z m74 -68 c23 -37 17 -85 -14 -125
-26 -33 -38 -33 -31 0 3 18 -4 36 -26 63 l-30 38 31 32 c17 17 36 30 42 28 5
-2 18 -18 28 -36z m-80 -101 c-4 -4 -18 -11 -31 -15 -21 -6 -22 -4 -16 22 11
44 16 48 36 23 10 -13 15 -26 11 -30z m-42 -131 c35 -24 43 -77 10 -59 -29 15
-31 13 -31 -21 0 -24 -4 -30 -15 -25 -8 3 -22 9 -30 12 -11 5 -15 -1 -15 -24
0 -30 0 -30 -37 -20 -43 11 -60 23 -74 50 -9 16 -7 18 15 12 22 -5 26 -3 26
16 0 22 0 22 48 3 8 -3 12 4 12 20 0 20 4 24 25 19 20 -3 25 0 25 17 0 26 5
26 41 0z m148 -95 c2 -2 -18 -16 -43 -33 -61 -38 -132 -55 -177 -43 -19 6 -26
11 -16 11 11 1 17 9 17 27 0 17 4 24 13 21 48 -20 47 -20 47 12 0 29 2 30 26
21 34 -13 34 -14 34 16 l0 26 48 -28 c26 -15 49 -28 51 -30z"/>
<path d="M474 715 c-4 -9 -2 -21 4 -27 15 -15 44 -1 40 19 -4 23 -36 29 -44 8z"/>
<path d="M630 630 c0 -5 5 -10 10 -10 6 0 10 5 10 10 0 6 -4 10 -10 10 -5 0
-10 -4 -10 -10z"/>
</g>
</svg>
